<svg width="175" height="144" viewBox="0 0 175 144" fill="none" xmlns="http://www.w3.org/2000/svg">
<g id="Highlight_09">
<g id="Group">
<path id="Vector" fill-rule="evenodd" clip-rule="evenodd" d="M60.917 41.7676C60.8481 41.7668 60.7786 41.763 60.7122 41.7584C59.8097 41.6714 58.5225 41.4162 57.0078 41.1962C53.2846 40.6514 48.2642 40.3414 44.0388 42.8925C41.1997 44.6059 38.6968 47.6017 37.1985 52.7236C36.5072 55.0997 37.0198 57.4354 38.2015 59.564C39.878 62.5921 42.9124 65.1916 45.4439 66.841C46.4599 67.5013 48.687 68.4275 50.1541 69.1886C15.6571 75.2856 4.80056 123.603 37.6513 140.931C38.0413 141.138 38.5234 140.986 38.73 140.599C38.9328 140.209 38.7841 139.725 38.3941 139.519C6.54531 122.717 17.6111 75.5404 51.5734 70.576C52.1936 70.4847 52.4813 70.21 52.6025 70.0091C52.7776 69.7141 52.8108 69.3693 52.577 68.9869C52.4015 68.7026 51.8469 68.2749 51.0491 67.8565C49.6197 67.1032 47.3387 66.1697 46.3112 65.5021C43.9719 63.9794 41.1456 61.5914 39.5964 58.7931C38.6238 57.0395 38.1607 55.1246 38.7289 53.1725C40.081 48.5453 42.2989 45.8072 44.8644 44.2572C48.7448 41.9152 53.3618 42.2772 56.7798 42.7733C58.6028 43.0413 60.1078 43.3487 61.0363 43.3774C61.6587 43.3968 62.1016 43.2736 62.3609 43.0905C62.493 42.9951 62.7428 42.7552 62.7097 42.2914C62.6763 41.8406 61.998 39.9286 61.9202 39.5993C59.823 30.5842 64.9512 23.2129 73.0555 19.5837C86.637 13.5029 96.6515 18.4531 99.6593 26.8691C102.29 34.228 99.5528 44.0564 89.3906 51.2746C89.049 51.4698 88.7042 51.6658 88.3588 51.8586C87.1924 52.5122 84.1907 54.2723 83.8021 54.5632C83.2593 54.9677 83.4848 55.5156 83.5225 55.5955C83.6181 55.7866 83.8088 56.0512 84.2577 56.0412C84.3003 56.0414 84.5191 56.0115 84.9009 55.8202C86.87 54.8276 88.6537 53.7526 90.26 52.6163C92.0558 51.5942 93.8387 50.5586 95.6828 49.6205C103.251 45.7755 111.166 42.307 119.672 41.3333C129.376 40.2193 142.621 42.4705 151.669 48.2222C156.1 51.039 159.521 54.6936 160.949 59.2379C162.379 63.7784 161.798 69.1836 158.333 75.481C158.119 75.8665 158.262 76.3514 158.647 76.5654C159.032 76.7793 159.517 76.6369 159.73 76.2514C163.457 69.4758 164.007 63.6455 162.468 58.7594C160.933 53.8727 157.289 49.9057 152.522 46.8768C143.179 40.9364 129.509 38.5981 119.49 39.7476C111.086 40.7113 103.245 44.032 95.7476 47.7988C102.069 40.8317 103.432 32.6862 101.16 26.3329C97.8997 17.208 87.1267 11.5359 72.402 18.1277C63.5821 22.0761 58.0857 30.1461 60.3672 39.9607C60.414 40.153 60.7094 41.1108 60.917 41.7676Z" fill="#2DB0B4"/>
</g>
</g>
</svg>
