<svg width="98" height="58" viewBox="0 0 98 58" fill="none" xmlns="http://www.w3.org/2000/svg">
<g id="Highlight_10">
<g id="Group">
<path id="Vector" fill-rule="evenodd" clip-rule="evenodd" d="M70.659 55.1779C79.4087 55.3878 88.3503 54.968 96.7164 57.9447C97.2151 58.1203 97.7636 57.8646 97.9439 57.3684C98.1204 56.8723 97.8633 56.3266 97.3647 56.1472C88.8029 53.1018 79.6581 53.4834 70.705 53.2697C70.1757 53.2544 69.7346 53.6742 69.7231 54.2009C69.7077 54.7275 70.1296 55.1626 70.659 55.1779Z" fill="white"/>
<path id="Vector_2" fill-rule="evenodd" clip-rule="evenodd" d="M69.8728 42.5393C72.6001 40.0426 75.5768 38.1722 79.1749 37.2452C79.6889 37.1132 79.9958 36.5922 79.8653 36.0824C79.7311 35.5725 79.2056 35.2661 78.6954 35.3981C74.7828 36.4056 71.5414 38.4214 68.5763 41.1345C68.185 41.4909 68.1581 42.0951 68.5187 42.4828C68.8754 42.8702 69.4854 42.8957 69.8728 42.5393Z" fill="white"/>
<g id="Group_2">
<path id="Vector_3" fill-rule="evenodd" clip-rule="evenodd" d="M62.2854 15.2816C63.536 11.0168 65.9986 7.68059 69.7732 5.27132C70.2181 4.98701 70.3486 4.39624 70.0609 3.95316C69.777 3.51008 69.1824 3.38108 68.7374 3.6654C64.5601 6.33303 61.829 10.025 60.4442 14.7469C60.2946 15.2522 60.59 15.7827 61.0963 15.93C61.6065 16.0777 62.1397 15.7869 62.2854 15.2816Z" fill="white"/>
</g>
<path id="Vector_4" fill-rule="evenodd" clip-rule="evenodd" d="M19.1892 9.49378C18.445 10.365 17.7775 11.3039 17.2098 12.3034C16.9566 12.7484 16.5117 13.694 16.4426 14.505C16.3659 15.369 16.6612 16.098 17.4208 16.4819C18.4296 16.991 19.2352 16.938 19.8566 16.63C20.455 16.3342 20.923 15.753 21.2183 14.9737C21.7822 13.4842 21.6978 11.2077 21.4024 9.90863C22.1965 9.09345 23.0672 8.35421 23.9994 7.69703C30.9424 2.80256 41.1268 4.60732 48.9636 11.9256C51.7062 14.4879 53.0258 19.8689 53.7124 25.6747C54.7827 34.7145 54.1727 44.8111 54.0883 47.7691C54.0692 48.4996 54.1382 48.9331 54.1766 49.0197C54.3569 49.4456 54.6752 49.5563 54.8977 49.5983C55.2199 49.6555 55.4769 49.5945 55.6841 49.4876C55.9641 49.3411 56.1943 49.0831 56.3017 48.685C56.3592 48.4652 56.3745 48.1592 56.3669 47.8329C56.3592 47.6066 56.3131 47.3592 56.3592 47.1971C56.6584 46.1582 57.019 45.1439 57.3719 44.1222C58.5495 40.6879 60.0724 37.4696 61.764 34.255C67.1382 24.041 72.3358 13.2487 81.1469 5.46676C81.542 5.11756 81.5804 4.51382 81.2275 4.11997C80.8784 3.72612 80.2723 3.69024 79.8734 4.03982C70.8858 11.9755 65.5462 22.9537 60.0647 33.37C58.6262 36.1044 57.3066 38.8427 56.2096 41.7069C56.3208 36.6403 56.2786 29.6269 55.3465 23.4216C54.5179 17.9027 52.9414 13.0254 50.2754 10.5345C41.6906 2.51748 30.4936 0.778376 22.8908 6.14035C22.0776 6.71433 21.3027 7.34557 20.5816 8.03022C16.6037 0.884099 8.08798 -1.98009 0.561899 1.43783C0.0785734 1.65651 -0.132398 2.22286 0.086249 2.70181C0.308732 3.18077 0.876428 3.3922 1.35975 3.17352C8.14166 0.0937281 15.8327 2.84225 19.1892 9.49378ZM19.7453 11.8862C19.4346 12.3228 19.1469 12.7755 18.8784 13.2433C18.7365 13.4945 18.491 13.9772 18.3874 14.4497C18.3644 14.5604 18.3606 14.7336 18.3606 14.8138C18.6253 14.9435 18.8324 15.0061 19.0011 14.9218C19.2121 14.818 19.3196 14.5737 19.4231 14.3009C19.684 13.6162 19.7684 12.7087 19.7453 11.8862Z" fill="white"/>
</g>
</g>
</svg>
