<svg width="83" height="83" viewBox="0 0 83 83" fill="none" xmlns="http://www.w3.org/2000/svg">
<g id="mdi:book-love">
<path id="Vector" d="M65.708 80.5791L63.633 78.85C56.7163 72.2791 51.8747 68.1291 51.8747 62.9416C51.8747 58.7916 55.333 55.3333 59.483 55.3333C61.9038 55.3333 64.3247 56.3708 65.708 58.1C67.0913 56.3708 69.5122 55.3333 71.933 55.3333C76.083 55.3333 79.5413 58.4458 79.5413 62.9416C79.5413 68.1291 74.6997 72.2791 67.783 78.85L65.708 80.5791ZM20.7497 76.0833C18.9153 76.0833 17.156 75.3546 15.8589 74.0574C14.5617 72.7603 13.833 71.001 13.833 69.1666V13.8333C13.833 9.99454 16.9109 6.91663 20.7497 6.91663H24.208V31.125L32.8538 25.9375L41.4997 31.125V6.91663H62.2497C64.0841 6.91663 65.8434 7.64534 67.1405 8.94247C68.4376 10.2396 69.1663 11.9989 69.1663 13.8333V45.235L65.708 44.9583C62.0665 44.9612 58.4898 45.9216 55.3367 47.7431C52.1835 49.5646 49.5647 52.1831 47.7429 55.3362C45.9212 58.4892 44.9605 62.0658 44.9573 65.7073C44.9541 69.3488 45.9085 72.9271 47.7247 76.0833H20.7497Z" fill="#33B77E"/>
</g>
</svg>
