<svg width="71" height="100" viewBox="0 0 71 100" fill="none" xmlns="http://www.w3.org/2000/svg">
<g id="Highlight_10">
<g id="Group">
<path id="Vector" fill-rule="evenodd" clip-rule="evenodd" d="M62.9177 34.6984C64.6554 26.7592 65.8514 18.5337 70.0504 11.4343C70.2989 11.0108 70.1621 10.4655 69.7405 10.2133C69.3182 9.96451 68.774 10.1021 68.5219 10.525C64.2257 17.7905 62.9588 26.1946 61.1817 34.3184C61.0742 34.7983 61.38 35.2747 61.8594 35.3785C62.338 35.4858 62.8102 35.1782 62.9177 34.6984Z" fill="white"/>
<path id="Vector_2" fill-rule="evenodd" clip-rule="evenodd" d="M51.2267 33.1765C49.4266 30.248 48.2429 27.2031 48.0313 23.7588C48.0014 23.2669 47.5795 22.8948 47.0904 22.9234C46.6006 22.9555 46.2277 23.3803 46.2583 23.8687C46.4879 27.614 47.7577 30.9259 49.7137 34.1096C49.9703 34.5294 50.5178 34.6609 50.9359 34.4009C51.353 34.1443 51.4841 33.5928 51.2267 33.1765Z" fill="white"/>
<g id="Group_2">
<path id="Vector_3" fill-rule="evenodd" clip-rule="evenodd" d="M24.9721 35.2645C21.2949 33.3691 18.6806 30.5331 17.1453 26.6654C16.9641 26.2094 16.4471 25.9859 15.9913 26.1696C15.5362 26.3499 15.3132 26.8691 15.4945 27.3251C17.1948 31.6057 20.0868 34.7495 24.1581 36.8483C24.5935 37.0742 25.1306 36.8989 25.3547 36.4634C25.5798 36.0245 25.4082 35.4869 24.9721 35.2645Z" fill="white"/>
</g>
<path id="Vector_4" fill-rule="evenodd" clip-rule="evenodd" d="M12.0678 73.5266C12.7327 74.3594 13.4729 75.1341 14.2861 75.8287C14.6481 76.1383 15.4339 76.7115 16.163 76.9181C16.9392 77.1411 17.6576 77.001 18.1427 76.3766C18.7863 75.5471 18.8801 74.8034 18.7084 74.1823C18.5438 73.5844 18.0952 73.0549 17.4351 72.6475C16.1732 71.8697 14.0776 71.5433 12.838 71.5825C12.2332 70.7142 11.7114 69.7895 11.2754 68.8233C8.02833 61.627 11.4772 52.6625 19.5509 46.8148C22.3774 44.7684 27.529 44.5187 32.957 44.9212C41.4087 45.5469 50.5295 47.8915 53.2183 48.4924C53.8825 48.6393 54.291 48.6531 54.377 48.6335C54.7981 48.5446 54.9555 48.274 55.0332 48.0786C55.1424 47.795 55.132 47.5499 55.071 47.3422C54.9865 47.0609 54.7913 46.8054 54.4465 46.637C54.2557 46.5456 53.9787 46.4774 53.6791 46.4266C53.4709 46.3935 53.2367 46.3916 53.0966 46.3209C52.1999 45.8642 51.3365 45.3558 50.465 44.8531C47.534 43.1712 44.8614 41.2128 42.2221 39.1013C33.8356 32.3928 24.8895 25.7428 19.3333 16.332C19.0839 15.91 18.5389 15.7681 18.1165 16.02C17.6949 16.2684 17.555 16.8146 17.804 17.2402C23.4696 26.8391 32.5606 33.6514 41.113 40.4936C43.3582 42.2893 45.6279 43.9773 48.052 45.4848C43.4406 44.4859 37.0228 43.282 31.1862 43.0325C25.9955 42.8102 21.259 43.3834 18.5112 45.3725C9.66669 51.7783 6.09887 61.6776 9.65665 69.5582C10.0376 70.4012 10.4777 71.2193 10.9761 71.998C3.74154 74.3584 -0.380924 81.6141 1.41349 89.0804C1.52798 89.5597 2.00837 89.8523 2.48477 89.7379C2.96185 89.6199 3.25541 89.1398 3.14092 88.6605C1.52409 81.9325 5.39513 75.4081 12.0678 73.5266ZM14.3528 73.4434C14.697 73.804 15.0599 74.1464 15.4401 74.4741C15.6446 74.648 16.0424 74.9573 16.456 75.1354C16.5531 75.176 16.7108 75.2102 16.784 75.2244C16.9494 75.0061 17.0432 74.8284 16.9959 74.6596C16.9383 74.4488 16.734 74.3076 16.5029 74.1649C15.9232 73.8058 15.1086 73.5681 14.3528 73.4434Z" fill="white"/>
</g>
</g>
</svg>
