<svg width="100" height="6" viewBox="0 0 100 6" fill="none" xmlns="http://www.w3.org/2000/svg">
<g id="Group">
<path id="Vector" d="M4.35187 4.71228H3.34145L2.03383 3.23477H1.26115V4.71228H0.429031V0.338867C1.14228 0.338867 1.85552 0.338867 2.50933 0.338867C3.51977 0.338867 4.11413 1.04807 4.11413 1.81637C4.11413 2.40737 3.81695 2.99837 2.98483 3.17567L4.35187 4.71228ZM1.32059 1.10716V2.52556H2.56876C3.10369 2.52556 3.34145 2.17097 3.34145 1.81637C3.34145 1.46177 3.10369 1.10716 2.56876 1.10716H1.32059Z" fill="#2CAEC7"/>
<path id="Vector_2" d="M9.28531 4.71228H6.01627C6.01627 3.23477 6.01627 1.81637 6.01627 0.338867H9.28531V1.16627H6.78894V2.17096H9.16643V2.93927H6.78894V3.94396H9.28531V4.71228Z" fill="#2CAEC7"/>
<path id="Vector_3" d="M14.2788 3.88488H11.9607L11.6041 4.71228H10.7126L12.674 0.338867H13.5655L15.527 4.71228H14.6354L14.2788 3.88488ZM13.1495 1.22537L12.3174 3.11657H13.9816L13.1495 1.22537Z" fill="#2CAEC7"/>
<path id="Vector_4" d="M18.0821 0.338867V3.94396H20.3407V4.71228H17.25V0.338867H18.0821Z" fill="#2CAEC7"/>
<path id="Vector_5" d="M28.663 4.1804C28.1875 4.6532 27.6525 4.83049 26.9987 4.83049C25.3345 4.83049 24.6807 3.70759 24.6807 2.58469C24.6807 1.46179 25.3939 0.279785 26.9987 0.279785C27.5931 0.279785 28.1875 0.51619 28.6035 0.929891L28.0686 1.46179C27.7714 1.16629 27.4148 1.04808 26.9987 1.04808C25.9288 1.04808 25.4533 1.81639 25.4533 2.58469C25.4533 3.29389 25.8694 4.06219 26.9987 4.06219C27.3553 4.06219 27.8308 3.8849 28.128 3.5894L28.663 4.1804Z" fill="#2CAEC7"/>
<path id="Vector_6" d="M33.2987 3.88488H30.9806L30.624 4.71228H29.7324L31.6938 0.338867H32.5854L34.5468 4.71228H33.6553L33.2987 3.88488ZM32.1694 1.22537L31.3372 3.11657H33.0015L32.1694 1.22537Z" fill="#2CAEC7"/>
<path id="Vector_7" d="M40.1335 4.71228H39.123L37.8154 3.23477H37.0427V4.71228H36.2106V0.338867C36.9238 0.338867 37.6371 0.338867 38.2909 0.338867C39.3013 0.338867 39.8957 1.04807 39.8957 1.81637C39.8957 2.40737 39.5985 2.99837 38.7664 3.17567L40.1335 4.71228ZM37.0427 1.10716V2.52556H38.2909C38.8258 2.52556 39.0636 2.17097 39.0636 1.81637C39.0636 1.46177 38.8258 1.10716 38.2909 1.10716H37.0427Z" fill="#2CAEC7"/>
<path id="Vector_8" d="M45.0076 4.71228H41.7386C41.7386 3.23477 41.7386 1.81637 41.7386 0.338867H45.0076V1.16627H42.5113V2.17096H44.8888V2.93927H42.5113V3.94396H45.0076V4.71228Z" fill="#2CAEC7"/>
<path id="Vector_9" d="M47.5032 5.304H47.0872L47.206 4.713C47.0277 4.6539 46.9088 4.59479 46.9088 4.35839C46.9088 3.76739 47.8004 3.82649 47.8004 4.35839C47.741 4.47659 47.741 4.4175 47.5032 5.304Z" fill="#2CAEC7"/>
<path id="Vector_10" d="M56.1797 4.71228H55.1693L53.8616 3.23477H53.089V4.71228H52.2568V0.338867C52.9701 0.338867 53.6833 0.338867 54.3371 0.338867C55.3476 0.338867 55.942 1.04807 55.942 1.81637C55.942 2.40737 55.6448 2.99837 54.8126 3.17567L56.1797 4.71228ZM53.089 1.10716V2.52556H54.3371C54.8721 2.52556 55.1098 2.17097 55.1098 1.81637C55.1098 1.46177 54.8721 1.10716 54.3371 1.10716H53.089Z" fill="#2CAEC7"/>
<path id="Vector_11" d="M61.0539 4.71228H57.7848C57.7848 3.23477 57.7848 1.81637 57.7848 0.338867H61.0539V1.16627H58.5575V2.17096H60.935V2.93927H58.5575V3.94396H61.0539V4.71228Z" fill="#2CAEC7"/>
<path id="Vector_12" d="M66.1089 3.88488H63.7908L63.4342 4.71228H62.5426L64.5041 0.338867H65.3956L67.357 4.71228H66.4655L66.1089 3.88488ZM64.9201 1.22537L64.088 3.11657H65.7522L64.9201 1.22537Z" fill="#2CAEC7"/>
<path id="Vector_13" d="M69.9099 0.338867V3.94396H72.1685V4.71228H69.0778V0.338867H69.9099Z" fill="#2CAEC7"/>
<path id="Vector_14" d="M79.2409 1.40269C79.0626 1.16628 78.6465 0.929891 78.171 0.929891C77.5766 0.929891 77.2794 1.16629 77.2794 1.52089C77.2794 1.87549 77.7549 1.99369 78.2899 2.05279C79.1814 2.17099 80.073 2.40739 80.073 3.47119C80.073 4.47589 79.1814 4.88959 78.2304 4.88959C77.3389 4.88959 76.6256 4.5941 76.3284 3.8258L77.0417 3.47119C77.22 3.94399 77.7549 4.1804 78.2899 4.1804C78.8248 4.1804 79.3003 4.0031 79.3003 3.5303C79.3003 3.11659 78.8843 2.93929 78.2899 2.88019C77.3983 2.76199 76.5662 2.52558 76.5662 1.57998C76.5662 0.693476 77.4578 0.279785 78.2899 0.279785C79.0031 0.279785 79.7164 0.457086 80.0136 1.16629L79.2409 1.40269Z" fill="#2CAEC7"/>
<path id="Vector_15" d="M84.9468 4.71228V2.93927H82.807V4.71228H81.9749V0.338867H82.807V2.17096H84.9468V0.338867H85.7789V4.71228H84.9468Z" fill="#2CAEC7"/>
<path id="Vector_16" d="M87.863 4.71228V0.338867H88.6951V4.71228H87.863Z" fill="#2CAEC7"/>
<path id="Vector_17" d="M93.6258 0.338867H94.4579V4.71228H93.9229L91.6049 1.75727V4.71228H90.7728V0.338867H91.4266L93.5663 3.05746V0.338867H93.6258Z" fill="#2CAEC7"/>
<path id="Vector_18" d="M99.7476 4.71228H96.4785C96.4785 3.23477 96.4785 1.81637 96.4785 0.338867H99.7476V1.16627H97.2512V2.17096H99.6287V2.93927H97.2512V3.94396H99.7476V4.71228Z" fill="#2CAEC7"/>
</g>
</svg>
