<svg width="131" height="10" viewBox="0 0 131 10" fill="none" xmlns="http://www.w3.org/2000/svg">
<g id="Group">
<path id="Vector" d="M5.60008 0.910178C7.20488 0.910178 8.33419 1.97399 8.33419 3.62879C8.33419 5.2245 7.26432 6.3474 5.60008 6.3474H5.65952L8.03701 9.36152L6.4322 9.77521L3.75752 6.3474H1.9744V9.36152L0.429031 9.7161V0.851074H5.60008V0.910178ZM1.91496 4.81079H5.54064C6.25388 4.81079 6.72938 4.33799 6.72938 3.56969C6.72938 2.86048 6.25388 2.38768 5.54064 2.38768H1.91496V4.81079Z" fill="white"/>
<path id="Vector_2" d="M9.22688 0.910156H16.3594L16.0027 2.44676H10.7722V4.57438H14.4574L14.1007 6.11098H10.7722V8.23858H16.3594L16.0027 9.77518H9.22688V0.910156Z" fill="white"/>
<path id="Vector_3" d="M16.8922 9.77518V4.81077C16.8922 2.50586 18.4376 0.910156 20.8745 0.910156H24.7974V9.42058L23.252 9.77518V2.44676H20.8151C19.3886 2.44676 18.4376 3.39237 18.4376 4.81077V6.11098H23.0143L22.2416 7.64757H18.4376V9.42058L16.8922 9.77518Z" fill="white"/>
<path id="Vector_4" d="M25.9865 1.26476L27.5319 0.910156V6.82018C27.5319 7.64758 28.0668 8.23858 28.9584 8.23858H33.119L33.4756 9.77518H28.3046C26.8781 9.77518 25.9271 8.82958 25.9271 7.41118V1.26476H25.9865Z" fill="white"/>
<path id="Vector_5" d="M43.1043 0.910156H45.6601L45.3034 2.44676H43.1637C41.3211 2.44676 40.1324 3.68787 40.1324 5.34267C40.1324 6.99748 41.3806 8.23858 43.1637 8.23858H45.7195L45.3629 9.77518H43.2231C40.489 9.77518 38.6465 7.94308 38.6465 5.34267C38.6465 2.74226 40.3702 0.910156 43.1043 0.910156Z" fill="white"/>
<path id="Vector_6" d="M46.2549 9.77518V4.81077C46.2549 2.50586 47.8003 0.910156 50.2372 0.910156H54.16V9.42058L52.6147 9.77518V2.44676H50.1777C48.7513 2.44676 47.8003 3.39237 47.8003 4.81077V6.11098H52.3769L51.6042 7.64757H47.8003V9.42058L46.2549 9.77518Z" fill="white"/>
<path id="Vector_7" d="M58.7365 6.3474V4.81079H60.6385C61.3517 4.81079 61.8272 4.33799 61.8272 3.56969C61.8272 2.86048 61.3517 2.38768 60.6385 2.38768H57.0128V9.36152L55.4674 9.7161V0.851074H60.6385C62.2433 0.851074 63.3726 1.91488 63.3726 3.56969C63.3726 5.16539 62.3027 6.2883 60.6385 6.2883H60.6979L63.0754 9.30241L61.4706 9.7161L58.7365 6.3474Z" fill="white"/>
<path id="Vector_8" d="M69.1986 0.910156H71.7544C74.4885 0.910156 76.331 2.74226 76.331 5.34267C76.331 7.94308 74.4885 9.77518 71.7544 9.77518H69.1986V0.910156ZM70.7439 8.23858H71.7544C73.5969 8.23858 74.7857 6.99748 74.7857 5.34267C74.7857 3.68787 73.5375 2.44676 71.7544 2.44676H70.7439V8.23858Z" fill="white"/>
<path id="Vector_9" d="M77.2832 0.910156H84.4157L84.059 2.44676H78.8286V4.57438H82.5137L82.157 6.11098H78.8286V8.23858H84.4157L84.059 9.77518H77.2832V0.910156Z" fill="white"/>
<path id="Vector_10" d="M84.3538 2.38768L84.7105 0.851074H92.6156L92.259 2.38768H89.2871V9.36152L87.7417 9.7161V2.38768H84.3538Z" fill="white"/>
<path id="Vector_11" d="M92.377 9.77518V4.81077C92.377 2.50586 93.9223 0.910156 96.3592 0.910156H100.282V9.42058L98.7367 9.77518V2.44676H96.2998C94.8733 2.44676 93.9223 3.39237 93.9223 4.81077V6.11098H98.499L97.7263 7.64757H93.9223V9.42058L92.377 9.77518Z" fill="white"/>
<path id="Vector_12" d="M101.59 1.26476L103.135 0.910156V9.42058L101.59 9.77518V1.26476Z" fill="white"/>
<path id="Vector_13" d="M104.265 1.26476L105.81 0.910156V6.82018C105.81 7.64758 106.345 8.23858 107.237 8.23858H111.397L111.754 9.77518H106.583C105.156 9.77518 104.205 8.82958 104.205 7.41118V1.26476H104.265Z" fill="white"/>
<path id="Vector_14" d="M112.29 1.26476L113.835 0.910156V9.42058L112.29 9.77518V1.26476Z" fill="white"/>
<path id="Vector_15" d="M122.87 9.36149L121.325 9.71608V4.81077C121.325 3.39237 120.374 2.44676 118.888 2.44676C117.462 2.44676 116.511 3.39237 116.511 4.81077V9.42058L114.965 9.77518V4.81077C114.965 2.50586 116.511 0.910156 118.947 0.910156C121.266 0.910156 122.87 2.44676 122.87 4.81077V9.36149Z" fill="white"/>
<path id="Vector_16" d="M128.219 0.910156H130.775L130.418 2.44676H128.278C126.436 2.44676 125.247 3.68787 125.247 5.34267C125.247 6.99748 126.495 8.23858 128.278 8.23858H129.17V5.34267L130.834 4.98807V9.77518H128.278C125.544 9.77518 123.701 7.94308 123.701 5.34267C123.701 2.74226 125.485 0.910156 128.219 0.910156Z" fill="white"/>
</g>
</svg>
