<svg xmlns="http://www.w3.org/2000/svg" fill="none" viewBox="21.89 14.95 66.98 44.92">
<g id="Real Car Detailing (1) (1) (1)-07 1">
<g id="Group">
<path id="Vector" d="M67.4636 44.9915C69.9592 42.4105 70.9693 39.3602 70.4345 35.8993C70.0186 33.2597 68.652 31.0893 66.513 29.3882C62.5914 26.2792 56.6496 26.6899 52.9657 30.2681C49.3413 33.7876 48.2123 40.5921 53.5599 45.5781C50.589 45.5781 47.737 45.5781 44.8255 45.5781C46.9052 43.1731 47.6182 40.3574 46.8457 37.2485C46.3704 35.1954 45.2415 33.4943 43.4589 32.2625C39.6562 29.5641 34.9622 29.9161 31.5754 33.1424C28.9016 35.7234 27.3568 41.1787 31.516 45.9887C28.248 45.9887 25.0395 45.9887 21.8904 45.9887C22.7222 42.7625 24.2076 39.7709 26.109 36.9552C29.6146 31.8519 33.9521 27.5697 39.062 24.1088C39.7156 23.6396 40.6663 23.5809 41.4387 23.4636C48.7471 22.2904 56.0555 21.1759 63.3638 19.944C70.3751 18.7122 77.3864 17.4217 84.2788 15.4273C85.1701 15.134 86.1802 15.0167 87.1309 14.958C88.3192 14.8993 88.9728 15.4273 88.854 16.6005C88.6163 18.7122 88.2004 20.8239 87.8439 22.877C87.7845 23.1116 87.428 23.3463 87.1903 23.4636C84.2788 24.6368 81.4268 25.8686 78.5153 26.8072C74.7126 28.0977 72.9895 30.9133 73.8213 34.7848C74.1184 36.0753 74.2967 37.3072 74.4155 38.5977C74.5343 40.0642 74.9503 41.296 76.1386 42.2345C74.5938 43.3491 69.4244 44.9915 67.4636 44.9915ZM39.062 29.3882C39.1214 29.3882 39.2403 29.3295 39.3591 29.3295C43.3995 28.6843 47.4399 28.1563 51.4803 27.4524C57.7192 26.3966 64.0174 25.3407 70.2563 24.1675C74.1778 23.4049 78.0994 22.4664 82.0209 21.5278C83.2093 21.2345 83.6846 20.5306 83.3876 19.5921C83.1499 18.8295 82.3775 18.5362 81.3079 18.8295C78.5747 19.4748 75.9009 20.1787 73.1677 20.7066C67.5825 21.8211 61.9378 22.8183 56.3526 23.8155C51.8368 24.5781 47.2617 25.2234 42.6865 25.9859C41.4982 26.1619 40.2504 26.3379 39.062 26.5139C38.1708 26.6312 37.6954 27.2764 37.7548 28.0977C37.6954 28.8016 38.2896 29.3882 39.062 29.3882Z" fill="url(#paint0_linear_21_6510)"/>
<path id="Vector_2" d="M86.7152 26.9243C86.2993 28.2735 85.824 29.6226 85.408 31.0305C84.3979 34.374 82.7937 37.307 80.0605 39.5947C79.6445 39.9467 79.1098 40.1813 78.575 40.24C77.862 40.2986 77.3867 39.7707 77.2678 39.0668C76.9707 37.2483 76.7331 35.3712 76.436 33.5528C76.1983 31.9104 77.0896 30.2679 78.6344 29.74C81.3082 28.7428 83.982 27.8629 86.7152 26.9243Z" fill="url(#paint1_linear_21_6510)"/>
<path id="Vector_3" d="M38.0522 45.7537C34.5466 45.7537 31.8134 42.9967 31.8728 39.4185C31.8728 35.9576 34.6654 33.2593 38.2305 33.2593C41.6767 33.2593 44.4099 36.0163 44.4099 39.5945C44.2911 43.0554 41.5578 45.7537 38.0522 45.7537ZM38.0522 43.7006C40.4289 43.7006 42.2709 41.8822 42.2709 39.5358C42.2709 37.1894 40.4289 35.371 38.0522 35.371C35.7349 35.371 33.8336 37.2481 33.8336 39.5358C33.8336 41.8235 35.7349 43.7006 38.0522 43.7006Z" fill="url(#paint2_linear_21_6510)"/>
<path id="Vector_4" d="M39.4185 39.536C39.4185 40.2986 38.8244 40.8852 38.0519 40.8852C37.2795 40.8852 36.7448 40.24 36.7448 39.4774C36.7448 38.7148 37.3983 38.0696 38.1113 38.1282C38.8838 38.1282 39.4185 38.7735 39.4185 39.536Z" fill="url(#paint3_linear_21_6510)"/>
</g>
<g id="Group_2">
<path id="Vector_5" d="M52.194 49.2148C50.8274 47.8069 49.5202 46.4578 48.1536 44.9913C48.6884 44.522 49.1637 44.0527 49.6391 43.5835C52.0158 41.3544 54.3925 39.184 56.7692 36.955C57.6604 36.1337 58.7299 35.8991 59.8589 36.3097C60.9878 36.6617 61.6414 37.4829 61.8197 38.5974C61.9979 39.536 61.7008 40.4159 60.9878 41.1198C58.1358 43.8181 55.2837 46.4578 52.4317 49.0974C52.3128 49.1561 52.2534 49.1561 52.194 49.2148ZM58.73 40.4159C59.1459 40.0053 59.1459 39.36 58.7894 38.9494C58.73 38.8907 58.6705 38.8321 58.6111 38.7734C58.1952 38.5388 57.8387 38.6561 57.4822 38.9494C56.4721 39.8879 55.462 40.8265 54.4519 41.765C53.9765 42.1756 53.9171 42.7622 54.3331 43.1729C54.749 43.5835 55.2837 43.5835 55.8185 43.1142C56.7692 42.293 57.7793 41.3544 58.73 40.4159Z" fill="url(#paint4_linear_21_6510)"/>
<path id="Vector_6" d="M58.4918 46.0471C59.2048 45.2845 59.6801 44.7566 60.7496 44.7566C64.6118 44.6392 67.7609 41.1783 67.4638 37.3068C67.2261 33.3767 63.6611 30.3264 59.7395 30.6197C56.2933 30.913 53.7384 33.2007 53.1442 36.6029C53.1442 36.7789 53.0848 36.8962 53.0254 37.1309C52.6688 36.8376 52.2529 36.6029 52.0152 36.251C51.8964 36.075 51.837 35.723 51.8964 35.4884C53.0254 31.1476 57.5411 28.4493 62.0568 29.3878C66.4537 30.3264 69.3652 34.3152 68.8304 38.7733C68.3551 42.9968 64.5524 46.2817 60.1555 46.223C59.6801 46.223 59.2048 46.1057 58.4918 46.0471Z" fill="url(#paint5_linear_21_6510)"/>
<path id="Vector_7" d="M44.1127 49.0972C45.3605 50.3877 46.6083 51.6782 47.856 52.9687C47.6778 53.086 47.5589 53.2033 47.4401 53.3206C44.4692 55.4324 41.4389 57.4854 38.468 59.5972C37.9333 60.0078 37.2797 59.9491 36.8638 59.5385C36.4478 59.1279 36.4479 58.5413 36.8044 58.0134C39.1811 55.0804 41.5578 52.1474 43.9345 49.2145C43.9345 49.2145 43.9939 49.1558 44.1127 49.0972Z" fill="url(#paint6_linear_21_6510)"/>
<path id="Vector_8" d="M55.64 35.312C56.4718 33.4349 58.7891 32.2617 60.9876 32.555C63.3643 32.907 65.2062 34.7254 65.5627 37.0131C65.8598 39.3009 64.6121 41.5299 62.473 42.4098C64.1961 39.9461 64.315 37.5997 62.1165 35.488C60.3934 33.9042 58.3138 33.9042 55.64 35.312Z" fill="url(#paint7_linear_21_6510)"/>
<path id="Vector_9" d="M45.3011 47.6313C45.7765 47.162 46.1924 46.7514 46.7271 46.3408C48.0937 47.7486 49.4603 49.1565 50.8269 50.5643C50.3516 51.0336 49.9357 51.4442 49.4603 51.9134C48.0343 50.447 46.7271 49.0391 45.3011 47.6313Z" fill="url(#paint8_linear_21_6510)"/>
</g>
</g>
<defs>
<linearGradient id="paint0_linear_21_6510" x1="71.3222" y1="28.5037" x2="39.0454" y2="40.0258" gradientUnits="userSpaceOnUse">
<stop stop-color="#33B77E"/>
<stop offset="1" stop-color="#29ABE2"/>
</linearGradient>
<linearGradient id="paint1_linear_21_6510" x1="81.5924" y1="27.2801" x2="81.5924" y2="43.0459" gradientUnits="userSpaceOnUse">
<stop stop-color="#C1272D"/>
<stop offset="1" stop-color="#FBB03B"/>
</linearGradient>
<linearGradient id="paint2_linear_21_6510" x1="97.2086" y1="23.3782" x2="25.8519" y2="43.3704" gradientUnits="userSpaceOnUse">
<stop stop-color="#C1272D"/>
<stop offset="1" stop-color="#FBB03B"/>
</linearGradient>
<linearGradient id="paint3_linear_21_6510" x1="97.2038" y1="23.3624" x2="25.8471" y2="43.3546" gradientUnits="userSpaceOnUse">
<stop stop-color="#C1272D"/>
<stop offset="1" stop-color="#FBB03B"/>
</linearGradient>
<linearGradient id="paint4_linear_21_6510" x1="74.045" y1="36.1289" x2="41.7682" y2="47.6511" gradientUnits="userSpaceOnUse">
<stop stop-color="#33B77E"/>
<stop offset="1" stop-color="#29ABE2"/>
</linearGradient>
<linearGradient id="paint5_linear_21_6510" x1="60.4306" y1="33.5593" x2="60.4306" y2="52.3085" gradientUnits="userSpaceOnUse">
<stop stop-color="#C1272D"/>
<stop offset="1" stop-color="#1B1464"/>
</linearGradient>
<linearGradient id="paint6_linear_21_6510" x1="76.2179" y1="42.2169" x2="43.9411" y2="53.739" gradientUnits="userSpaceOnUse">
<stop stop-color="#33B77E"/>
<stop offset="1" stop-color="#29ABE2"/>
</linearGradient>
<linearGradient id="paint7_linear_21_6510" x1="73.0183" y1="33.253" x2="40.7415" y2="44.7751" gradientUnits="userSpaceOnUse">
<stop stop-color="#33B77E"/>
<stop offset="1" stop-color="#29ABE2"/>
</linearGradient>
<linearGradient id="paint8_linear_21_6510" x1="75.2924" y1="39.625" x2="43.0157" y2="51.1471" gradientUnits="userSpaceOnUse">
<stop stop-color="#33B77E"/>
<stop offset="1" stop-color="#29ABE2"/>
</linearGradient>
</defs>
</svg>